<?xml version="1.0" standalone="no"?>
<!DOCTYPE svg PUBLIC "-//W3C//DTD SVG 20010904//EN"
 "http://www.w3.org/TR/2001/REC-SVG-20010904/DTD/svg10.dtd">
<svg version="1.0" xmlns="http://www.w3.org/2000/svg"
 width="357.000000pt" height="357.000000pt" viewBox="0 0 357.000000 357.000000"
 preserveAspectRatio="xMidYMid meet">
<metadata>
Created by potrace 1.14, written by Peter Selinger 2001-2017
</metadata>
<g transform="translate(0.000000,357.000000) scale(0.100000,-0.100000)"
fill="#000000" stroke="none">
<path d="M2859 3320 c0 -8 0 -30 1 -47 1 -18 -1 -37 -5 -43 -3 -5 -8 -44 -10
-86 -5 -93 -11 -114 -34 -114 -18 0 -35 35 -86 179 -25 73 -52 130 -40 85 3
-11 8 -45 11 -75 3 -29 8 -65 10 -79 11 -69 13 -129 4 -135 -12 -7 -54 4 -46
12 6 6 -60 106 -92 139 -12 12 -19 24 -17 26 2 2 -7 17 -20 33 l-25 30 19 -47
c11 -26 21 -55 23 -65 2 -10 7 -21 11 -24 5 -3 9 -12 11 -20 2 -14 29 -77 47
-111 6 -12 4 -20 -8 -27 -19 -10 -44 1 -77 35 -38 38 -164 144 -171 144 -4 0
5 -15 20 -32 78 -97 113 -146 108 -152 -4 -3 1 -6 11 -6 28 0 119 -64 164
-115 56 -64 100 -159 120 -257 12 -64 18 -78 31 -73 69 27 174 28 281 3 70
-16 200 -83 255 -131 42 -36 147 -87 180 -87 5 0 -41 30 -102 68 -157 95 -155
94 -147 115 6 16 14 18 48 13 23 -3 86 -8 141 -11 116 -6 110 -1 -54 47 -169
49 -166 66 22 99 70 13 127 26 127 31 0 4 -40 8 -89 8 -48 0 -109 3 -135 6
-39 6 -47 10 -44 27 2 14 35 33 128 74 69 30 128 58 133 62 4 4 -59 -7 -140
-24 -145 -32 -163 -31 -163 0 0 6 52 50 115 100 62 49 113 91 111 92 -1 2 -63
-27 -136 -63 -102 -50 -135 -62 -141 -52 -5 7 -9 17 -9 21 0 4 37 56 82 115
45 59 86 114 92 122 6 8 -18 -10 -53 -40 -160 -138 -180 -153 -196 -140 -16
13 -13 22 64 199 22 52 39 96 38 98 -2 1 -41 -53 -88 -122 -46 -68 -88 -125
-94 -125 -32 0 -34 15 -19 110 9 52 13 105 11 117 -2 12 0 24 5 25 6 2 8 14 6
27 -2 16 -20 -23 -53 -113 -44 -121 -52 -136 -72 -136 -15 0 -23 6 -24 18 0
26 -7 90 -15 152 -4 30 -6 65 -5 77 1 12 -2 30 -8 40 -8 14 -11 15 -12 3z"/>
<path d="M1315 3095 c-65 -14 -135 -44 -135 -57 0 -4 -6 -8 -13 -8 -37 0 -193
-187 -174 -207 4 -3 -1 -12 -9 -21 -9 -8 -13 -23 -11 -33 3 -11 1 -19 -3 -19
-11 0 -12 -9 -12 -145 0 -121 1 -133 9 -155 3 -8 7 -22 9 -30 1 -8 5 -27 8
-42 l6 -28 -78 0 c-85 0 -213 -28 -259 -56 -76 -48 -121 -115 -142 -212 -18
-85 -12 -116 8 -45 33 114 104 197 201 235 62 23 210 29 288 10 l42 -10 -2 39
c-2 21 -6 39 -10 39 -4 0 -7 8 -7 18 -2 44 -8 89 -15 100 -11 17 3 184 16 198
4 3 4 12 2 19 -3 7 0 16 5 20 6 3 9 11 6 16 -4 5 -1 9 6 9 7 0 10 3 6 6 -8 9
31 84 43 84 6 0 9 4 7 9 -1 5 20 29 46 54 62 59 135 87 228 87 73 0 179 -29
206 -56 8 -7 19 -14 24 -14 13 0 27 -13 97 -82 70 -70 82 -84 82 -98 0 -5 5
-10 11 -10 5 0 7 -5 4 -10 -3 -6 0 -13 8 -16 14 -5 31 -39 28 -56 -1 -5 3 -8
9 -8 5 0 10 -9 10 -20 0 -11 5 -20 11 -20 5 0 7 -4 4 -10 -3 -5 -1 -10 5 -10
6 0 9 -4 6 -9 -3 -4 1 -16 8 -27 8 -10 12 -24 9 -31 -3 -7 0 -13 6 -13 6 0 10
-5 8 -12 -1 -6 6 -14 17 -16 11 -2 16 0 12 7 -4 6 0 18 8 27 9 9 14 20 11 25
-4 5 -1 9 5 9 6 0 8 5 5 10 -3 6 -2 10 3 10 8 0 23 35 19 43 -5 9 120 137 158
162 50 33 126 55 191 55 48 0 74 -6 122 -31 60 -30 142 -108 142 -135 0 -8 5
-14 11 -14 5 0 7 -4 4 -10 -3 -5 -2 -10 3 -10 17 0 56 -131 56 -192 1 -21 4
-38 8 -38 3 0 6 -16 6 -36 0 -19 2 -38 5 -40 3 -3 22 3 44 14 106 54 275 56
386 4 126 -58 230 -185 277 -337 41 -128 39 -330 -5 -535 -11 -53 68 158 86
230 41 157 35 321 -16 450 -79 202 -296 349 -517 350 -48 0 -129 -19 -189 -44
-14 -6 -17 3 -22 66 -2 40 -7 82 -10 93 -3 11 -8 32 -12 48 -4 15 -11 27 -17
27 -5 0 -7 4 -4 9 10 15 -36 92 -86 143 -119 123 -316 154 -478 75 -49 -24
-145 -115 -155 -147 -3 -11 -11 -20 -16 -20 -6 0 -7 -4 -4 -10 3 -5 1 -10 -5
-10 -6 0 -8 -4 -5 -10 3 -5 2 -10 -4 -10 -6 0 -8 -7 -5 -15 4 -8 1 -15 -5 -15
-6 0 -8 -7 -4 -16 4 -12 2 -15 -8 -12 -8 3 -13 11 -11 17 1 6 -2 11 -7 11 -5
0 -7 14 -6 30 1 17 -1 30 -6 30 -5 0 -6 7 -3 15 4 8 1 15 -5 15 -6 0 -10 3
-10 8 3 17 -14 72 -23 72 -5 0 -6 5 -3 10 3 6 1 10 -5 10 -6 0 -8 5 -5 10 3 6
1 10 -4 10 -6 0 -11 7 -11 15 0 8 -8 25 -17 36 -28 35 -106 109 -114 109 -4 0
-14 6 -21 13 -19 19 -115 55 -177 67 -68 13 -111 12 -186 -5z"/>
<path d="M2333 2615 c0 -8 4 -15 9 -15 4 0 8 4 8 9 0 6 -4 12 -8 15 -5 3 -9
-1 -9 -9z"/>
<path d="M2339 2573 c0 -10 -1 -51 -1 -90 0 -40 -3 -73 -7 -73 -3 0 -6 -252
-5 -561 0 -308 -2 -562 -5 -564 -8 -5 -6 -158 2 -171 4 -8 85 18 234 75 126
48 324 123 440 166 117 44 213 83 213 86 0 3 -38 32 -85 63 -104 71 -270 227
-353 333 -76 96 -182 250 -182 264 0 5 -7 12 -15 15 -8 4 -13 10 -10 14 3 5
-1 14 -8 22 -7 7 -19 28 -26 46 -7 17 -17 32 -22 32 -5 0 -8 3 -7 8 4 9 -54
126 -64 130 -4 2 -4 10 -1 18 3 8 0 14 -7 14 -6 0 -9 4 -5 9 3 5 -1 15 -8 23
-8 7 -12 18 -10 24 2 7 -2 18 -10 25 -7 8 -12 19 -10 25 2 7 -2 18 -9 25 -7 8
-13 20 -14 27 -2 27 -4 32 -14 32 -5 0 -10 -8 -11 -17z"/>
<path d="M1695 2538 c-22 -11 -41 -24 -43 -29 -2 -5 -8 -9 -14 -9 -6 0 -20 -9
-32 -19 -76 -69 -108 -101 -102 -101 4 0 0 -7 -8 -15 -9 -9 -20 -24 -25 -33
-9 -15 -12 -15 -35 8 -64 64 -112 82 -221 86 l-90 4 65 -19 c99 -27 191 -74
235 -119 55 -55 65 -69 58 -76 -4 -3 -1 -6 6 -6 7 0 9 -5 5 -11 -4 -7 -1 -10
7 -7 8 3 13 16 12 31 -1 15 2 27 7 27 5 0 7 9 5 20 -2 11 0 20 5 20 5 0 7 7 4
15 -4 8 -1 15 6 15 6 0 8 5 5 10 -3 6 -1 10 4 10 6 0 11 3 10 8 -2 15 14 52
22 52 5 0 9 5 9 11 0 6 20 30 44 52 59 55 67 62 102 80 42 23 6 18 -41 -5z"/>
<path d="M1925 2430 c3 -5 8 -10 11 -10 2 0 4 5 4 10 0 6 -5 10 -11 10 -5 0
-7 -4 -4 -10z"/>
<path d="M2890 2104 c0 -3 16 -24 36 -46 40 -45 77 -124 71 -150 -3 -10 0 -18
5 -18 7 0 8 -14 5 -36 l-6 -35 37 32 c50 44 112 69 191 79 l66 7 -93 2 c-62 1
-104 -4 -129 -14 -19 -8 -37 -15 -38 -15 -2 0 -7 15 -10 33 -14 62 -42 101
-107 149 -16 10 -28 16 -28 12z"/>
<path d="M835 1994 c-173 -22 -293 -60 -425 -132 -114 -63 -252 -198 -298
-293 -66 -137 -76 -179 -76 -349 -1 -178 13 -238 89 -389 161 -320 404 -474
851 -537 155 -21 525 -29 729 -15 94 7 287 23 430 36 441 41 584 48 855 42
221 -5 331 -14 507 -42 37 -6 38 -6 12 9 -14 8 -70 33 -125 55 -363 146 -712
177 -1399 125 -306 -23 -723 -24 -880 -1 -243 36 -345 71 -453 156 -72 57
-183 201 -194 252 -2 7 -8 19 -14 25 -17 19 -62 163 -73 235 -30 189 27 332
170 428 100 67 246 99 344 76 57 -14 162 -77 181 -109 25 -41 35 -76 22 -76
-6 0 -8 -6 -5 -14 12 -30 -84 -77 -183 -91 -106 -14 -215 -72 -195 -104 3 -6
1 -11 -4 -11 -12 0 -16 -142 -4 -154 4 -3 8 -16 10 -28 5 -35 49 -102 88 -137
101 -88 251 -122 389 -86 66 17 194 78 224 106 12 10 24 19 27 19 10 0 83 78
78 84 -3 3 2 8 11 12 9 3 13 10 10 15 -3 5 2 12 10 15 9 3 14 10 11 14 -3 5 2
16 11 24 8 9 12 16 8 16 -3 0 -2 6 3 13 6 6 9 20 8 30 -2 9 0 17 4 17 3 0 6
31 6 70 0 38 -2 70 -5 70 -3 0 -6 15 -8 33 -4 58 -6 67 -15 67 -4 0 -5 5 -2
10 3 6 3 16 -2 23 -4 6 -9 21 -10 32 -2 11 -8 22 -13 23 -6 2 -10 12 -10 22 0
10 -5 22 -10 25 -6 4 -8 11 -5 16 4 5 1 9 -4 9 -6 0 -11 7 -11 15 0 8 -5 15
-12 15 -6 0 -9 3 -5 6 6 6 -6 24 -35 52 -10 9 -18 20 -18 24 0 7 -79 87 -121
122 -41 35 -164 94 -224 110 -63 16 -200 27 -250 20z"/>
<path d="M2235 1780 c-3 -5 -1 -10 4 -10 6 0 11 5 11 10 0 6 -2 10 -4 10 -3 0
-8 -4 -11 -10z"/>
<path d="M2232 1748 c0 -7 -3 -24 -7 -38 -3 -14 -8 -32 -10 -40 -2 -8 -4 -16
-5 -17 -2 -2 -3 -6 -5 -10 -1 -5 -7 -21 -14 -38 -7 -16 -14 -37 -16 -46 -6
-29 -80 -174 -93 -182 -7 -5 -10 -12 -8 -16 3 -4 -4 -18 -15 -29 -11 -12 -16
-22 -12 -22 4 0 1 -6 -8 -13 -9 -7 -18 -16 -19 -22 -4 -11 -16 -26 -42 -56
-10 -10 -15 -19 -12 -19 3 0 -15 -20 -40 -45 -26 -25 -43 -45 -40 -45 3 0 -8
-13 -26 -30 -18 -16 -36 -30 -42 -30 -5 0 -6 -5 -3 -10 3 -6 -5 -14 -18 -19
-13 -5 -27 -17 -31 -26 -5 -13 -2 -16 11 -10 10 3 38 10 63 15 25 5 128 30
230 55 102 25 187 45 191 45 3 0 5 45 6 100 0 55 -2 100 -6 100 -3 0 -7 57 -8
128 -1 70 -3 173 -4 230 -1 56 -5 102 -9 102 -4 0 -7 -6 -8 -12z"/>
<path d="M3250 1295 c-41 -13 -286 -87 -545 -165 -258 -77 -519 -156 -580
-175 -141 -44 -477 -143 -533 -157 -23 -6 -41 -13 -38 -15 5 -5 1108 -32 1326
-33 l146 0 94 168 c52 92 124 220 161 285 37 64 62 117 56 117 -7 -1 -46 -12
-87 -25z"/>
<path d="M445 1187 c12 -198 50 -294 157 -401 114 -112 268 -174 518 -207 128
-17 542 -17 987 0 762 30 1119 -18 1410 -189 69 -40 70 -20 2 47 -121 119
-332 190 -664 223 -60 6 -411 15 -780 20 -782 10 -902 20 -1140 96 -170 54
-337 171 -401 280 -31 53 -74 162 -74 188 0 12 -5 28 -11 36 -7 11 -9 -16 -4
-93z"/>
<path d="M3318 1203 c-13 -27 -72 -139 -132 -251 -59 -112 -107 -204 -105
-206 18 -15 122 -76 125 -74 1 2 33 127 69 278 36 151 67 281 70 288 10 27 -4
9 -27 -35z"/>
</g>
</svg>
